<?xml version="1.0" standalone="no"?><!DOCTYPE svg PUBLIC "-//W3C//DTD SVG 1.1//EN" "http://www.w3.org/Graphics/SVG/1.1/DTD/svg11.dtd"><svg t="1564754114636" class="icon" viewBox="0 0 1024 1024" version="1.1" xmlns="http://www.w3.org/2000/svg" p-id="2496" xmlns:xlink="http://www.w3.org/1999/xlink" width="200" height="200"><defs><style type="text/css"></style></defs><path d="M0.05952 448m64 0l896 0q64 0 64 64l0 0q0 64-64 64l-896 0q-64 0-64-64l0 0q0-64 64-64Z" fill="#ffffff" p-id="2497"></path><path d="M153.33952 512L557.49952 915.712c24.8 24.768 24.8 64.96 0 89.696a63.552 63.552 0 0 1-89.792 0L18.61952 556.864a63.392 63.392 0 0 1 0-89.728L467.67552 18.592a63.552 63.552 0 0 1 89.792 0c24.8 24.768 24.8 64.928 0 89.696L153.33952 512z" fill="#ffffff" p-id="2498"></path></svg>