<?xml version="1.0" standalone="no"?><!DOCTYPE svg PUBLIC "-//W3C//DTD SVG 1.1//EN" "http://www.w3.org/Graphics/SVG/1.1/DTD/svg11.dtd"><svg t="1558121112471" class="icon" style="" viewBox="0 0 1024 1024" version="1.1" xmlns="http://www.w3.org/2000/svg" p-id="15487" xmlns:xlink="http://www.w3.org/1999/xlink" width="200" height="200"><defs><style type="text/css"></style></defs><path d="M228.59822065 897.00467207V133.91795689c0-28.11652377 23.00442854-51.12095231 51.1209523-51.12095232h546.78118573c28.11652377 0 51.12095231 23.00442854 51.12095231 51.12095232v763.08671518c0 28.11652377-23.00442854 51.12095231-51.12095231 51.12095231H279.71917295c-28.11652377 0-51.12095231-23.00442854-51.1209523-51.12095231z" fill="#4E98A0" p-id="15488"></path><path d="M230.40875437 890.29504708V140.30807592c0-7.02913093 5.75110714-12.78023807 12.78023807-12.78023807h572.87417181c7.02913093 0 12.78023807 5.75110714 12.78023808 12.78023807v749.98697116c0 7.02913093-5.75110714 12.78023807-12.78023808 12.78023809H243.18899244c-7.02913093 0-12.78023807-5.75110714-12.78023807-12.78023809z" fill="#B9D5EA" p-id="15489"></path><path d="M816.06316425 913.72548356H243.18899244c-12.88674006 0-23.43043648-10.54369642-23.43043647-23.43043648V140.30807592c0-12.88674006 10.54369642-23.43043648 23.43043647-23.43043647h572.87417181c12.88674006 0 23.43043648 10.54369642 23.43043648 23.43043647v749.98697116c0 12.88674006-10.43719443 23.43043648-23.43043648 23.43043648zM243.18899244 138.17803624c-1.17152183 0-2.13003968 0.95851785-2.13003968 2.13003968v749.98697116c0 1.17152183 0.95851785 2.13003968 2.13003968 2.13003968h572.87417181c1.17152183 0 2.13003968-0.95851785 2.13003968-2.13003968V140.30807592c0-1.17152183-0.95851785-2.13003968-2.13003968-2.13003968H243.18899244z" fill="#322E63" p-id="15490"></path><path d="M826.3938567 958.77582278H279.71917295c-34.08063487 0-61.7711507-27.69051583-61.7711507-61.77115071V133.91795689c0-34.08063487 27.69051583-61.7711507 61.7711507-61.77115071h546.78118573c34.08063487 0 61.7711507 27.69051583 61.7711507 61.77115071v763.08671518c-0.10650198 34.08063487-27.79701781 61.7711507-61.87765268 61.77115071zM279.71917295 93.44720298c-22.36541663 0-40.4707539 18.10533727-40.47075391 40.47075391v763.08671518c0 22.36541663 18.10533727 40.4707539 40.47075391 40.47075391h546.78118573c22.36541663 0 40.4707539-18.10533727 40.4707539-40.47075391V133.91795689c0-22.36541663-18.10533727-40.4707539-40.4707539-40.47075391H279.71917295z" fill="#322E63" p-id="15491"></path><path d="M145.42017115 897.00467207V133.91795689c0-28.11652377 23.00442854-51.12095231 51.12095231-51.12095232h524.73527506c28.11652377 0 51.12095231 23.00442854 51.1209523 51.12095232v763.08671518c0 28.11652377-23.00442854 51.12095231-51.1209523 51.12095231H196.54112346c-28.11652377 0-51.12095231-23.00442854-51.12095231-51.12095231z" fill="#4E98A0" p-id="15492"></path><path d="M145.42017115 897.00467207V133.91795689c0-28.11652377 23.00442854-51.12095231 51.12095231-51.12095232H679.20811484c28.11652377 0 51.12095231 23.00442854 51.1209523 51.12095232v763.08671518c0 28.11652377-23.00442854 51.12095231-51.1209523 51.12095231H196.54112346c-28.11652377 0-51.12095231-23.00442854-51.12095231-51.12095231z" fill="#76C49A" p-id="15493"></path><path d="M721.3829005 958.77582278H196.54112346c-34.08063487 0-61.7711507-27.69051583-61.7711507-61.77115071V133.91795689c0-34.08063487 27.69051583-61.7711507 61.7711507-61.77115071h524.73527506c34.08063487 0 61.7711507 27.69051583 61.7711507 61.77115071v763.08671518c0.10650198 34.08063487-27.58401385 61.7711507-61.66464872 61.77115071zM196.54112346 93.44720298c-22.36541663 0-40.4707539 18.10533727-40.4707539 40.47075391v763.08671518c0 22.36541663 18.10533727 40.4707539 40.4707539 40.47075391h524.73527506c22.36541663 0 40.4707539-18.10533727 40.4707539-40.47075391V133.91795689c0-22.36541663-18.10533727-40.4707539-40.4707539-40.47075391H196.54112346z" fill="#322E63" p-id="15494"></path><path d="M404.64600014 329.98810939l-77.42694234-51.54696024-77.53344433 51.54696024v-223.65416636h154.96038667z" fill="#4E98A0" p-id="15495"></path><path d="M404.64600014 284.19225627l-77.42694234-51.54696024-77.42694236 51.54696024v-198.0936902c0-14.16476387 11.39571228-25.56047615 25.56047616-25.56047614h103.83943439c14.16476387 0 25.56047615 11.39571228 25.56047615 25.56047614v198.0936902z" fill="#FF525F" p-id="15496"></path><path d="M404.64600014 275.67209756l-77.42694234-53.46399596-77.42694236 53.46399596V119.96619699c0-14.59077181 11.39571228-26.51899402 25.56047616-26.51899401h103.83943439c14.16476387 0 25.56047615 11.82172023 25.56047615 26.51899401v155.70590057z" fill="#EA4468" p-id="15497"></path><path d="M404.64600014 294.84245466c-2.0235377 0-4.15357738-0.6390119-5.85760911-1.81053371l-71.56933323-47.60638684-71.56933323 47.60638684c-3.3015615 2.13003968-7.45513887 2.34304364-10.96970434 0.53250991-3.51456548-1.81053373-5.64460515-5.43160118-5.64460517-9.37217459v-198.0936902c0-19.915871 16.29480355-36.21067455 36.21067456-36.21067454h103.83943438c19.915871 0 36.21067455 16.29480355 36.21067455 36.21067454v198.0936902c0 3.94057341-2.13003968 7.56164086-5.64460515 9.37217459-1.49102778 0.85201587-3.19505953 1.2780238-5.00559326 1.2780238z m-129.39991052-223.65416633c-8.20065277 0-14.91027776 6.70962499-14.91027776 14.91027774v178.17781921l60.91913484-40.5772559c3.62106745-2.34304364 8.20065277-2.34304364 11.82172021 0l60.91913484 40.5772559V86.09856607c0-8.20065277-6.70962499-14.91027776-14.91027775-14.91027774h-103.83943438z" fill="#322E63" p-id="15498"></path><path d="M627.44815063 409.75809538H447.77930366c-5.85760912 0-10.6501984-4.79258928-10.6501984-10.65019839s4.79258928-10.6501984 10.6501984-10.6501984h179.66884697c5.85760912 0 10.6501984 4.79258928 10.65019839 10.6501984s-4.79258928 10.6501984-10.65019839 10.65019839zM627.44815063 494.21416868h-83.92356337c-5.85760912 0-10.6501984-4.79258928-10.6501984-10.65019839s4.79258928-10.6501984 10.6501984-10.6501984h83.92356337c5.85760912 0 10.6501984 4.79258928 10.65019839 10.6501984s-4.79258928 10.6501984-10.65019839 10.65019839zM479.83640083 494.21416868H285.25727612c-5.85760912 0-10.6501984-4.79258928-10.6501984-10.65019839s4.79258928-10.6501984 10.6501984-10.6501984h194.57912471c5.85760912 0 10.6501984 4.79258928 10.65019841 10.6501984s-4.68608729 10.6501984-10.65019841 10.65019839zM627.44815063 572.70613085H285.25727612c-5.85760912 0-10.6501984-4.79258928-10.6501984-10.65019838s4.79258928-10.6501984 10.6501984-10.65019841h342.19087451c5.85760912 0 10.6501984 4.79258928 10.65019839 10.65019841s-4.79258928 10.6501984-10.65019839 10.65019838zM627.44815063 653.22163074H461.51805959c-5.85760912 0-10.6501984-4.79258928-10.65019839-10.65019838s4.79258928-10.6501984 10.65019839-10.6501984h165.93009104c5.85760912 0 10.6501984 4.79258928 10.65019839 10.6501984s-4.79258928 10.6501984-10.65019839 10.65019838zM382.60008947 653.22163074h-97.34281335c-5.85760912 0-10.6501984-4.79258928-10.6501984-10.65019838s4.79258928-10.6501984 10.6501984-10.6501984h97.34281335c5.85760912 0 10.6501984 4.79258928 10.6501984 10.6501984s-4.79258928 10.6501984-10.6501984 10.65019838z" fill="#322E63" p-id="15499"></path></svg>