<?xml version="1.0" encoding="UTF-8"?>
<svg width="362px" height="362px" viewBox="0 0 362 362" version="1.1" xmlns="http://www.w3.org/2000/svg" xmlns:xlink="http://www.w3.org/1999/xlink">
    <!-- Generator: Sketch 55.1 (78136) - https://sketchapp.com -->
    <title>Combined Shape</title>
    <desc>Created with Sketch.</desc>
    <defs>
        <linearGradient x1="44.2428004%" y1="31.7741593%" x2="17.1891522%" y2="100%" id="linearGradient-1">
            <stop stop-color="#FFA3A3" offset="0%"></stop>
            <stop stop-color="#FF3536" offset="100%"></stop>
        </linearGradient>
    </defs>
    <g id="Page-1" stroke="none" stroke-width="1" fill="none" fill-rule="evenodd">
        <path d="M181,362 C81.0364603,362 0,280.96354 0,181 C0,81.0364603 81.0364603,0 181,0 C280.96354,0 362,81.0364603 362,181 C362,280.96354 280.96354,362 181,362 Z M268.475745,117.437126 C256.508511,105.449102 241.277486,100 224.95853,100 C209.727505,100 194.49648,105.449102 183.617176,116.347305 L182.529246,117.437126 L180.353385,115.257485 C169.474081,105.449102 154.243056,100 139.012031,100 C122.693075,100 107.46205,106.538922 95.4948163,117.437126 C83.5275823,128.33533 77,144.682635 77,161.02994 C77,177.377246 83.5275823,192.634731 95.4948163,204.622755 L169.474081,276.550898 C172.737872,279.820359 177.089594,282 181.441315,282 C185.793037,282 190.144759,279.820359 193.40855,276.550898 L267.387814,204.622755 C279.355048,193.724551 285.882631,177.377246 285.882631,161.02994 C286.970561,144.682635 280.442979,129.42515 268.475745,117.437126 Z" id="Combined-Shape" fill="url(#linearGradient-1)"></path>
    </g>
</svg>