<?xml version="1.0" encoding="UTF-8"?>
<svg width="200px" height="201px" viewBox="0 0 200 201" version="1.1" xmlns="http://www.w3.org/2000/svg" xmlns:xlink="http://www.w3.org/1999/xlink">
    <!-- Generator: Sketch 55.1 (78136) - https://sketchapp.com -->
    <title>频道1</title>
    <desc>Created with Sketch.</desc>
    <defs>
        <linearGradient x1="50%" y1="100%" x2="50%" y2="0%" id="linearGradient-1">
            <stop stop-color="#891F83" offset="0%"></stop>
            <stop stop-color="#CF3B7F" offset="100%"></stop>
        </linearGradient>
    </defs>
    <g id="Page-1" stroke="none" stroke-width="1" fill="none" fill-rule="evenodd">
        <g id="频道1" fill="url(#linearGradient-1)" fill-rule="nonzero">
            <path d="M42.2298187,67.9820508 L175.995191,67.9820508 C189.250025,67.9820508 199.995191,78.7272168 199.995191,91.9820508 L199.995191,176.982051 C199.995191,190.236885 189.250025,200.982051 175.995191,200.982051 L24.9951905,200.982051 C11.7403565,200.982051 0.995190528,190.236885 0.995190528,176.982051 L0.995190528,91.9820508 C0.995190528,79.7816574 10.0987706,69.707519 21.8836616,68.1819047 L139.250943,0.419872981 L144.250943,9.08012702 L42.2298187,67.9820508 Z M57.9951905,166.982051 C74.563733,166.982051 87.9951905,153.550593 87.9951905,136.982051 C87.9951905,120.413508 74.563733,106.982051 57.9951905,106.982051 C41.426648,106.982051 27.9951905,120.413508 27.9951905,136.982051 C27.9951905,153.550593 41.426648,166.982051 57.9951905,166.982051 Z M122.495191,106.982051 C117.80077,106.982051 113.995191,110.78763 113.995191,115.482051 C113.995191,120.176471 117.80077,123.982051 122.495191,123.982051 L167.495191,123.982051 C172.189611,123.982051 175.995191,120.176471 175.995191,115.482051 C175.995191,110.78763 172.189611,106.982051 167.495191,106.982051 L122.495191,106.982051 Z M122.495191,128.982051 C117.80077,128.982051 113.995191,132.78763 113.995191,137.482051 C113.995191,142.176471 117.80077,145.982051 122.495191,145.982051 L167.495191,145.982051 C172.189611,145.982051 175.995191,142.176471 175.995191,137.482051 C175.995191,132.78763 172.189611,128.982051 167.495191,128.982051 L122.495191,128.982051 Z M122.495191,149.982051 C117.80077,149.982051 113.995191,153.78763 113.995191,158.482051 C113.995191,163.176471 117.80077,166.982051 122.495191,166.982051 L167.495191,166.982051 C172.189611,166.982051 175.995191,163.176471 175.995191,158.482051 C175.995191,153.78763 172.189611,149.982051 167.495191,149.982051 L122.495191,149.982051 Z" id="Combined-Shape"></path>
        </g>
    </g>
</svg>