<?xml version="1.0" encoding="UTF-8"?>
<svg width="199px" height="182px" viewBox="0 0 199 182" version="1.1" xmlns="http://www.w3.org/2000/svg" xmlns:xlink="http://www.w3.org/1999/xlink">
    <!-- Generator: Sketch 55.1 (78136) - https://sketchapp.com -->
    <title>扶뒬못</title>
    <desc>Created with Sketch.</desc>
    <g id="Page-1" stroke="none" stroke-width="1" fill="none" fill-rule="evenodd">
        <g id="扶뒬못" fill="#999999" fill-rule="nonzero">
            <path d="M156.190785,181.330194 C155.807386,181.330194 155.499183,181.319647 155.278285,181.308514 L38.5292613,181.308514 C30.7085582,181.308514 26.2068004,178.014569 23.8075817,175.251287 C18.5499645,169.196014 18.9722301,160.986248 19.2093395,158.708319 L19.2093395,88.4876156 L31.7093395,88.4876156 L31.7093395,159.564373 L31.6503551,159.932147 C31.5017223,161.182342 31.4876598,165.064373 33.2693004,167.082342 C33.6462535,167.509295 34.7933238,168.808514 38.5294567,168.808514 L155.777113,168.808514 L155.923597,168.82453 C156.344105,168.839373 160.281996,168.909295 162.758754,166.567303 C164.409925,165.005975 165.247035,162.424334 165.247035,158.893866 L165.247035,88.4337094 L177.747035,88.4337094 L177.747035,158.893866 C177.747035,167.853045 174.183168,173.028827 171.193324,175.79328 C165.815589,180.765936 159.002699,181.330194 156.190785,181.330194 Z M25.4591442,94.3534359 L6.2503551,94.3534359 C3.65445666,94.3534359 1.32906603,92.749139 0.407386347,90.3223812 C-0.514098028,87.8956234 0.160120722,85.1520687 2.10152697,83.4290219 L94.3318004,1.57550624 C96.6794567,-0.508087513 100.208168,-0.527228138 102.57848,1.5311703 L196.090394,82.74035 C198.03473,84.4290219 198.7443,87.1374203 197.877699,89.5624203 C197.011097,91.9874203 194.745863,93.6327328 192.171449,93.7067562 L171.675746,94.2950375 C171.614613,94.2969906 171.553871,94.2977719 171.492933,94.2977719 C168.124379,94.2977719 165.346254,91.6163265 165.248793,88.2270687 C165.149769,84.7766781 167.866566,81.8993344 171.316957,81.8003109 L175.795668,81.6717953 L98.5253551,14.5665219 L22.7085582,81.8534359 L25.4591442,81.8534359 C28.910902,81.8534359 31.7091442,84.6516781 31.7091442,88.1034359 C31.7091442,91.5551937 28.910902,94.3534359 25.4591442,94.3534359 Z M77.5394176,175.117694 C74.6269176,175.117694 72.2659801,172.756756 72.2659801,169.844256 L72.2659801,125.733709 C72.2659801,124.783319 72.5069957,120.870428 76.1763317,117.140936 C80.6294567,112.614959 88.1798473,110.320037 98.6179332,110.320037 C108.898793,110.320037 116.367152,112.646405 120.815589,117.234686 C124.570472,121.107342 124.812464,125.185077 124.805199,126.266717 L124.805199,169.67492 C124.805199,172.58742 122.444105,174.948358 119.531605,174.948358 C116.619105,174.948358 114.258168,172.58742 114.258168,169.67492 L114.258168,126.328827 C114.223207,126.100897 114.002699,125.136639 112.692347,124.074725 C111.214027,122.876678 107.419496,120.866912 98.6177379,120.866912 C88.4083629,120.866912 84.7802379,123.434295 83.6943004,124.537811 C83.1610973,125.079803 82.9372692,125.540936 82.8433238,125.832147 C82.829066,125.876092 82.8193004,125.91242 82.8126598,125.939373 L82.8126598,169.844256 C82.8128551,172.756756 80.4519176,175.117694 77.5394176,175.117694 Z M78.9066051,133.086248 L77.1487926,173.320623 L30.6644176,170.781561 L27.3441051,121.172186 L28.3206676,88.7503109 L14.4534801,84.2581234 L98.2425426,8.28156092 L180.85973,80.3518734 L172.461293,88.3596859 L168.945668,160.625311 L165.625355,171.758123 L121.875355,173.320623 L121.094105,144.219061 L118.35973,124.687811 L112.89098,120.195623 L102.148793,118.437811 L88.8675426,119.609686 L80.6644176,120.781561 L78.9066051,133.086248 Z" id="Shape"></path>
        </g>
    </g>
</svg>