<?xml version="1.0" encoding="UTF-8"?>
<svg width="199px" height="182px" viewBox="0 0 199 182" version="1.1" xmlns="http://www.w3.org/2000/svg" xmlns:xlink="http://www.w3.org/1999/xlink">
    <!-- Generator: Sketch 55.1 (78136) - https://sketchapp.com -->
    <title>扶뒬못1</title>
    <desc>Created with Sketch.</desc>
    <defs>
        <linearGradient x1="50%" y1="100%" x2="50%" y2="0%" id="linearGradient-1">
            <stop stop-color="#891F83" offset="0%"></stop>
            <stop stop-color="#CF3B7F" offset="100%"></stop>
        </linearGradient>
    </defs>
    <g id="Page-1" stroke="none" stroke-width="1" fill="none" fill-rule="evenodd">
        <g id="扶뒬못1" fill="url(#linearGradient-1)" fill-rule="nonzero">
            <path d="M156.385742,181.44707 C156.002344,181.44707 155.694141,181.436523 155.473242,181.425391 L38.7242187,181.425391 C30.9035156,181.425391 26.4017578,178.131445 24.0025391,175.368164 C18.7449219,169.312891 19.1671875,161.103125 19.4042969,158.825195 L19.4042969,88.6044922 L31.9042969,88.6044922 L31.9042969,159.68125 L31.8453125,160.049023 C31.6966797,161.299219 31.6826172,165.18125 33.4642578,167.199219 C33.8412109,167.626172 34.9882812,168.925391 38.7244141,168.925391 L155.97207,168.925391 L156.118555,168.941406 C156.539062,168.95625 160.476953,169.026172 162.953711,166.68418 C164.604883,165.122852 165.441992,162.541211 165.441992,159.010742 L165.441992,88.5505859 L177.941992,88.5505859 L177.941992,159.010742 C177.941992,167.969922 174.378125,173.145703 171.388281,175.910156 C166.010547,180.882812 159.197656,181.44707 156.385742,181.44707 Z M25.6541016,94.4703125 L6.4453125,94.4703125 C3.84941406,94.4703125 1.52402344,92.8660156 0.60234375,90.4392578 C-0.319140625,88.0125 0.355078125,85.2689453 2.29648437,83.5458984 L94.5267578,1.69238281 C96.8744141,-0.391210937 100.403125,-0.410351562 102.773437,1.64804688 L196.285352,82.8572266 C198.229688,84.5458984 198.939258,87.2542969 198.072656,89.6792969 C197.206055,92.1042969 194.94082,93.7496094 192.366406,93.8236328 L171.870703,94.4119141 C171.80957,94.4138672 171.748828,94.4146484 171.687891,94.4146484 C168.319336,94.4146484 165.541211,91.7332031 165.44375,88.3439453 C165.344727,84.8935547 168.061523,82.0162109 171.511914,81.9171875 L175.990625,81.7886719 L98.7203125,14.6833984 L22.9035156,81.9703125 L25.6541016,81.9703125 C29.1058594,81.9703125 31.9041016,84.7685547 31.9041016,88.2203125 C31.9041016,91.6720703 29.1058594,94.4703125 25.6541016,94.4703125 Z M77.734375,175.23457 C74.821875,175.23457 72.4609375,172.873633 72.4609375,169.961133 L72.4609375,125.850586 C72.4609375,124.900195 72.7019531,120.987305 76.3712891,117.257813 C80.8244141,112.731836 88.3748047,110.436914 98.8128906,110.436914 C109.09375,110.436914 116.562109,112.763281 121.010547,117.351563 C124.76543,121.224219 125.007422,125.301953 125.000156,126.383594 L125.000156,169.791797 C125.000156,172.704297 122.639063,175.065234 119.726563,175.065234 C116.814063,175.065234 114.453125,172.704297 114.453125,169.791797 L114.453125,126.445703 C114.418164,126.217773 114.197656,125.253516 112.887305,124.191602 C111.408984,122.993555 107.614453,120.983789 98.8126953,120.983789 C88.6033203,120.983789 84.9751953,123.551172 83.8892578,124.654688 C83.3560547,125.19668 83.1322266,125.657813 83.0382812,125.949023 C83.0240234,125.992969 83.0142578,126.029297 83.0076172,126.05625 L83.0076172,169.961133 C83.0078125,172.873633 80.646875,175.23457 77.734375,175.23457 Z M79.1015625,133.203125 L77.34375,173.4375 L30.859375,170.898438 L27.5390625,121.289063 L28.515625,88.8671875 L14.6484375,84.375 L98.4375,8.3984375 L181.054688,80.46875 L172.65625,88.4765625 L169.140625,160.742188 L165.820312,171.875 L122.070312,173.4375 L121.289062,144.335938 L118.554688,124.804688 L113.085937,120.3125 L102.34375,118.554688 L89.0625,119.726563 L80.859375,120.898438 L79.1015625,133.203125 Z" id="Shape"></path>
        </g>
    </g>
</svg>